<svg xmlns="http://www.w3.org/2000/svg" viewBox="0 0 24 24" fill="none">
  <defs>
    <filter id="glow" x="-50%" y="-50%" width="200%" height="200%">
      <feGaussianBlur stdDeviation="2" result="coloredBlur" />
      <feMerge>
        <feMergeNode in="coloredBlur" />
        <feMergeNode in="SourceGraphic" />
      </feMerge>
    </filter>
  </defs>
  <g filter="url(#glow)" stroke="#A3E635" stroke-width="2" stroke-linecap="round" stroke-linejoin="round">
    <path d="M10.343 3.94c.09-.542.56-.94 1.11-.94h1.093c.55 0 1.02.398 1.11.94l.149.894a1.125 1.125 0 001.085.916h.862c.56 0 1.064.386 1.17.93l.205 1.025a1.125 1.125 0 001.071.896l.85.085c.55.055.98.5 1.002 1.05l.034.917c.02.552-.356 1.04-.899 1.143l-.9.173a1.125 1.125 0 00-.88.736l-.27.855c-.17.539-.66.9-1.221.9h-.512a1.125 1.125 0 00-1.023.736l-.315.855c-.19.518-.69.864-1.25.864h-.095c-.56 0-1.06-.346-1.25-.864l-.315-.855a1.125 1.125 0 00-1.023-.736h-.512c-.56 0-1.05-.361-1.221-.9l-.27-.855a1.125 1.125 0 00-.88-.736l-.9-.173c-.543-.103-.92-.591-.9-1.143l.034-.917c.022-.55.452-.995 1.002-1.05l.85-.085a1.125 1.125 0 001.071-.896l.205-1.025c.106-.544.61-.93 1.17-.93h.862c.525 0 .983-.378 1.085-.916l.149-.894z" />
    <circle cx="12" cy="12" r="3" fill="#A3E635" stroke="none" />
  </g>
</svg>
