<svg xmlns="http://www.w3.org/2000/svg" viewBox="0 0 24 24" fill="none">
  <defs>
    <filter id="glow" x="-50%" y="-50%" width="200%" height="200%">
      <feGaussianBlur stdDeviation="2" result="coloredBlur" />
      <feMerge>
        <feMergeNode in="coloredBlur" />
        <feMergeNode in="SourceGraphic" />
      </feMerge>
    </filter>
  </defs>
  <path fill="currentColor" filter="url(#glow)" d="M19.14 12.94a7.49 7.49 0 000-.94c0-.32-.02-.64-.06-.94l2.03-1.58a.5.5 0 00.12-.61l-1.92-3.32a.5.5 0 00-.59-.22l-2.39.96a7.34 7.34 0 00-1.62-.94l-.36-2.42a.5.5 0 00-.5-.41h-3.92a.5.5 0 00-.5.41l-.36 2.42a7.34 7.34 0 00-1.62.94L5.67 5.77a.5.5 0 00-.59.22L3.16 9.31a.5.5 0 00.12.61l2.03 1.58c-.04.3-.06.61-.06.94s.02.64.06.94l-2.03 1.58a.5.5 0 00-.12.61l1.92 3.32a.5.5 0 00.59.22l2.39-.96c.5.38 1.03.7 1.62.94l.36 2.42a.5.5 0 00.5.41h3.92a.5.5 0 00.5-.41l.36-2.42a7.34 7.34 0 001.62-.94l2.39.96a.5.5 0 00.59-.22l1.92-3.32a.5.5 0 00-.12-.61l-2.03-1.58zM12 15.5a3.5 3.5 0 110-7 3.5 3.5 0 010 7z" />
</svg>
